<?xml version="1.0" encoding="UTF-8" standalone="no"?>
<svg width="33px" height="32px" viewBox="0 0 33 32" version="1.1" xmlns="http://www.w3.org/2000/svg" xmlns:xlink="http://www.w3.org/1999/xlink">
    <g stroke="none" stroke-width="1" fill="none" fill-rule="evenodd">
        <g transform="translate(0.000000, 0.049127)" stroke="#F86FFF" stroke-width="0.5" fill="#F86FFF">
            <path d="M1.30041055,18.4364886 L5.23379619,18.4364886 L5.23379619,23.2266297 L8.99975055,18.4364886 L20.6393484,18.4364886 L20.6393484,1.58627179 L1.30041055,1.58627179 L1.30041055,18.4364886 Z M4.40226247,25.6288907 L4.40226247,19.2687139 L1.08674824,19.2687139 C0.745638244,19.2687139 0.468876833,18.9910971 0.468876833,18.6503286 L0.468876833,1.37305705 C0.468876833,1.03166337 0.745638244,0.754671789 1.08674824,0.754671789 L20.8523859,0.754671789 C21.1934959,0.754671789 21.4702573,1.03166337 21.4702573,1.37305705 L21.4702573,18.6503286 C21.4702573,18.9910971 21.1934959,19.2687139 20.8523859,19.2687139 L9.40395965,19.2687139 L4.40226247,25.6288907 Z" id="Fill-1"></path>
            <path d="M28.7390865,31.1639703 L23.8773319,25.2039619 L13.3347838,25.2039619 C12.9942986,25.2039619 12.7169124,24.9263451 12.7169124,24.5855766 L12.7169124,18.8525387 L13.5484462,18.8525387 L13.5484462,24.3723619 L24.2721699,24.3723619 L27.9081776,28.8298629 L27.9081776,24.3723619 L31.2686733,24.3723619 L31.2686733,7.52151979 L21.0547404,7.52151979 L21.0547404,6.68929453 L31.4823356,6.68929453 C31.8228209,6.68929453 32.1002071,6.96753663 32.1002071,7.30893032 L32.1002071,24.5855766 C32.1002071,24.9263451 31.8228209,25.2039619 31.4823356,25.2039619 L28.7390865,25.2039619 L28.7390865,31.1639703 Z" id="Fill-3"></path>
        </g>
    </g>
</svg>
