<?xml version="1.0" encoding="UTF-8" standalone="no"?>
<svg width="244px" height="397px" viewBox="0 0 244 397" version="1.1" xmlns="http://www.w3.org/2000/svg" xmlns:xlink="http://www.w3.org/1999/xlink">
    <defs>
        <rect id="path-1" x="24" y="408" width="228" height="34" rx="3"></rect>
        <filter x="-5.7%" y="-32.4%" width="111.4%" height="176.5%" filterUnits="objectBoundingBox" id="filter-2">
            <feOffset dx="0" dy="2" in="SourceAlpha" result="shadowOffsetOuter1"></feOffset>
            <feGaussianBlur stdDeviation="4" in="shadowOffsetOuter1" result="shadowBlurOuter1"></feGaussianBlur>
            <feComposite in="shadowBlurOuter1" in2="SourceAlpha" operator="out" result="shadowBlurOuter1"></feComposite>
            <feColorMatrix values="0 0 0 0 0   0 0 0 0 0   0 0 0 0 0  0 0 0 0.15 0" type="matrix" in="shadowBlurOuter1"></feColorMatrix>
        </filter>
    </defs>
    <g id="Page-1" stroke="none" stroke-width="1" fill="none" fill-rule="evenodd">
        <g id="Hero-Mock" transform="translate(-177.000000, -257.000000)">
            <g id="Fake-App" transform="translate(161.000000, 180.000000)">
                <rect id="Rectangle-Copy-23" fill="#9E9E9E" x="24" y="247" width="228" height="1"></rect>
                <rect id="Rectangle-Copy-24" fill="#9E9E9E" x="24" y="320" width="228" height="1"></rect>
                <path d="M29.994,218 L29.994,216.375 L25.704,216.375 L25.704,214.399 L29.903,214.399 L29.903,212.774 L25.704,212.774 L25.704,210.954 L29.994,210.954 L29.994,209.329 L23.858,209.329 L23.858,218 L29.994,218 Z M41.836,218 L41.836,209.329 L39.236,209.329 L37.13,214.75 L35.024,209.329 L32.437,209.329 L32.437,218 L34.283,218 L34.283,211.747 L36.727,218 L37.533,218 L39.977,211.747 L39.977,218 L41.836,218 Z M52.638,218 L50.545,218 L49.999,216.531 L46.281,216.531 L45.735,218 L43.642,218 L46.983,209.329 L49.297,209.329 L52.638,218 Z M49.492,214.906 L48.14,211.175 L46.788,214.906 L49.492,214.906 Z M56.29,218 L56.29,209.329 L54.444,209.329 L54.444,218 L56.29,218 Z M64.453,218 L64.453,216.375 L60.787,216.375 L60.787,209.329 L58.928,209.329 L58.928,218 L64.453,218 Z M79.128,218 L77.035,218 L76.489,216.531 L72.771,216.531 L72.225,218 L70.132,218 L73.473,209.329 L75.787,209.329 L79.128,218 Z M75.982,214.906 L74.63,211.175 L73.278,214.906 L75.982,214.906 Z M84.366,218 L80.934,218 L80.934,209.329 L84.353,209.329 C87.07,209.329 88.955,211.058 88.955,213.658 C88.955,216.284 87.07,218 84.366,218 Z M84.353,216.375 C86.069,216.375 87.07,215.14 87.07,213.658 C87.07,212.137 86.134,210.954 84.366,210.954 L82.78,210.954 L82.78,216.375 L84.353,216.375 Z M94.7,218 L91.268,218 L91.268,209.329 L94.687,209.329 C97.404,209.329 99.289,211.058 99.289,213.658 C99.289,216.284 97.404,218 94.7,218 Z M94.687,216.375 C96.403,216.375 97.404,215.14 97.404,213.658 C97.404,212.137 96.468,210.954 94.7,210.954 L93.114,210.954 L93.114,216.375 L94.687,216.375 Z M108.635,218 L106.503,218 L104.8,214.919 L103.448,214.919 L103.448,218 L101.602,218 L101.602,209.329 L105.658,209.329 C107.465,209.329 108.583,210.512 108.583,212.124 C108.583,213.645 107.608,214.477 106.672,214.698 L108.635,218 Z M105.398,213.294 C106.126,213.294 106.685,212.852 106.685,212.111 C106.685,211.396 106.126,210.954 105.398,210.954 L103.448,210.954 L103.448,213.294 L105.398,213.294 Z M117.097,218 L117.097,216.375 L112.807,216.375 L112.807,214.399 L117.006,214.399 L117.006,212.774 L112.807,212.774 L112.807,210.954 L117.097,210.954 L117.097,209.329 L110.961,209.329 L110.961,218 L117.097,218 Z M122.634,218.156 C124.961,218.156 126.105,216.96 126.105,215.374 C126.105,212.137 121.126,213.06 121.126,211.695 C121.126,211.175 121.568,210.837 122.348,210.837 C123.232,210.837 124.168,211.136 124.87,211.786 L125.897,210.408 C125.039,209.615 123.895,209.199 122.517,209.199 C120.476,209.199 119.228,210.395 119.228,211.838 C119.228,215.101 124.22,214.048 124.22,215.556 C124.22,216.063 123.739,216.518 122.712,216.518 C121.516,216.518 120.567,215.972 119.956,215.335 L118.942,216.778 C119.761,217.597 120.957,218.156 122.634,218.156 Z M131.434,218.156 C133.761,218.156 134.905,216.96 134.905,215.374 C134.905,212.137 129.926,213.06 129.926,211.695 C129.926,211.175 130.368,210.837 131.148,210.837 C132.032,210.837 132.968,211.136 133.67,211.786 L134.697,210.408 C133.839,209.615 132.695,209.199 131.317,209.199 C129.276,209.199 128.028,210.395 128.028,211.838 C128.028,215.101 133.02,214.048 133.02,215.556 C133.02,216.063 132.539,216.518 131.512,216.518 C130.316,216.518 129.367,215.972 128.756,215.335 L127.742,216.778 C128.561,217.597 129.757,218.156 131.434,218.156 Z" id="Email-Address" fill="#16CFC2"></path>
                <path d="M25.704,290 L23.858,290 L23.858,281.329 L27.914,281.329 C29.799,281.329 30.826,282.603 30.826,284.124 C30.826,285.632 29.786,286.906 27.914,286.906 L25.704,286.906 L25.704,290 Z M27.654,285.281 C28.382,285.281 28.941,284.839 28.941,284.124 C28.941,283.396 28.382,282.954 27.654,282.954 L25.704,282.954 L25.704,285.281 L27.654,285.281 Z M40.107,290 L38.014,290 L37.468,288.531 L33.75,288.531 L33.204,290 L31.111,290 L34.452,281.329 L36.766,281.329 L40.107,290 Z M36.961,286.906 L35.609,283.175 L34.257,286.906 L36.961,286.906 Z M44.916,290.156 C47.243,290.156 48.387,288.96 48.387,287.374 C48.387,284.137 43.408,285.06 43.408,283.695 C43.408,283.175 43.85,282.837 44.63,282.837 C45.514,282.837 46.45,283.136 47.152,283.786 L48.179,282.408 C47.321,281.615 46.177,281.199 44.799,281.199 C42.758,281.199 41.51,282.395 41.51,283.838 C41.51,287.101 46.502,286.048 46.502,287.556 C46.502,288.063 46.021,288.518 44.994,288.518 C43.798,288.518 42.849,287.972 42.238,287.335 L41.224,288.778 C42.043,289.597 43.239,290.156 44.916,290.156 Z M53.716,290.156 C56.043,290.156 57.187,288.96 57.187,287.374 C57.187,284.137 52.208,285.06 52.208,283.695 C52.208,283.175 52.65,282.837 53.43,282.837 C54.314,282.837 55.25,283.136 55.952,283.786 L56.979,282.408 C56.121,281.615 54.977,281.199 53.599,281.199 C51.558,281.199 50.31,282.395 50.31,283.838 C50.31,287.101 55.302,286.048 55.302,287.556 C55.302,288.063 54.821,288.518 53.794,288.518 C52.598,288.518 51.649,287.972 51.038,287.335 L50.024,288.778 C50.843,289.597 52.039,290.156 53.716,290.156 Z M68.015,290 L70.485,281.329 L68.418,281.329 L66.897,287.595 L65.259,281.329 L63.816,281.329 L62.165,287.595 L60.644,281.329 L58.577,281.329 L61.06,290 L63.023,290 L64.531,284.046 L66.052,290 L68.015,290 Z M76.217,290.156 C73.591,290.156 71.68,288.284 71.68,285.671 C71.68,283.058 73.591,281.186 76.217,281.186 C78.83,281.186 80.741,283.058 80.741,285.671 C80.741,288.284 78.83,290.156 76.217,290.156 Z M76.217,288.518 C77.816,288.518 78.843,287.283 78.843,285.671 C78.843,284.046 77.816,282.824 76.217,282.824 C74.605,282.824 73.578,284.046 73.578,285.671 C73.578,287.283 74.605,288.518 76.217,288.518 Z M90.074,290 L87.942,290 L86.239,286.919 L84.887,286.919 L84.887,290 L83.041,290 L83.041,281.329 L87.097,281.329 C88.904,281.329 90.022,282.512 90.022,284.124 C90.022,285.645 89.047,286.477 88.111,286.698 L90.074,290 Z M86.837,285.294 C87.565,285.294 88.124,284.852 88.124,284.111 C88.124,283.396 87.565,282.954 86.837,282.954 L84.887,282.954 L84.887,285.294 L86.837,285.294 Z M95.832,290 L92.4,290 L92.4,281.329 L95.819,281.329 C98.536,281.329 100.421,283.058 100.421,285.658 C100.421,288.284 98.536,290 95.832,290 Z M95.819,288.375 C97.535,288.375 98.536,287.14 98.536,285.658 C98.536,284.137 97.6,282.954 95.832,282.954 L94.246,282.954 L94.246,288.375 L95.819,288.375 Z" id="PASSWORD" fill="#16CFC2"></path>
                <path d="M29.319,233.272 C29.711,233.272 30.019,232.964 30.019,232.572 C30.019,232.18 29.711,231.858 29.319,231.858 C28.927,231.858 28.605,232.18 28.605,232.572 C28.605,232.964 28.927,233.272 29.319,233.272 Z M27.835,243.744 C29.137,243.744 29.837,242.988 29.837,241.658 L29.837,234.238 L28.787,234.238 L28.787,241.658 C28.787,242.512 28.325,242.876 27.695,242.876 C27.275,242.876 26.967,242.694 26.729,242.456 L26.365,243.24 C26.785,243.576 27.149,243.744 27.835,243.744 Z M37.215,241 L36.165,241 L36.165,240.23 C35.619,240.846 34.835,241.168 33.925,241.168 C32.791,241.168 31.573,240.398 31.573,238.928 C31.573,237.402 32.777,236.702 33.925,236.702 C34.849,236.702 35.619,236.996 36.165,237.612 L36.165,236.394 C36.165,235.498 35.437,234.98 34.457,234.98 C33.645,234.98 32.987,235.26 32.385,235.918 L31.895,235.19 C32.623,234.434 33.491,234.07 34.597,234.07 C36.039,234.07 37.215,234.714 37.215,236.352 L37.215,241 Z M34.317,240.412 C35.045,240.412 35.759,240.132 36.165,239.572 L36.165,238.284 C35.759,237.738 35.045,237.458 34.317,237.458 C33.323,237.458 32.637,238.074 32.637,238.928 C32.637,239.796 33.323,240.412 34.317,240.412 Z M48.541,241 L48.541,236.114 C48.541,234.756 47.883,234.07 46.651,234.07 C45.671,234.07 44.761,234.714 44.383,235.33 C44.187,234.63 43.599,234.07 42.577,234.07 C41.569,234.07 40.673,234.784 40.379,235.218 L40.379,234.238 L39.329,234.238 L39.329,241 L40.379,241 L40.379,236.058 C40.743,235.512 41.471,235.008 42.157,235.008 C43.053,235.008 43.403,235.554 43.403,236.408 L43.403,241 L44.453,241 L44.453,236.044 C44.803,235.498 45.545,235.008 46.245,235.008 C47.127,235.008 47.491,235.554 47.491,236.408 L47.491,241 L48.541,241 Z M51.173,233.272 C51.565,233.272 51.873,232.964 51.873,232.572 C51.873,232.18 51.565,231.858 51.173,231.858 C50.781,231.858 50.459,232.18 50.459,232.572 C50.459,232.964 50.781,233.272 51.173,233.272 Z M51.691,241 L51.691,234.238 L50.641,234.238 L50.641,241 L51.691,241 Z M56.857,241.168 C54.841,241.168 53.399,239.726 53.399,237.612 C53.399,235.652 54.799,234.07 56.731,234.07 C58.775,234.07 59.979,235.666 59.979,237.696 L59.979,237.962 L54.519,237.962 C54.603,239.236 55.485,240.3 56.941,240.3 C57.725,240.3 58.495,239.992 59.041,239.432 L59.545,240.118 C58.859,240.79 57.949,241.168 56.857,241.168 Z M58.943,237.178 C58.929,236.184 58.257,234.938 56.717,234.938 C55.275,234.938 54.561,236.156 54.505,237.178 L58.943,237.178 Z M62.723,241 L62.723,231.662 L61.673,231.662 L61.673,241 L62.723,241 Z M67.889,241.168 C65.873,241.168 64.431,239.726 64.431,237.612 C64.431,235.652 65.831,234.07 67.763,234.07 C69.807,234.07 71.011,235.666 71.011,237.696 L71.011,237.962 L65.551,237.962 C65.635,239.236 66.517,240.3 67.973,240.3 C68.757,240.3 69.527,239.992 70.073,239.432 L70.577,240.118 C69.891,240.79 68.981,241.168 67.889,241.168 Z M69.975,237.178 C69.961,236.184 69.289,234.938 67.749,234.938 C66.307,234.938 65.593,236.156 65.537,237.178 L69.975,237.178 Z M75.771,241.168 C73.755,241.168 72.313,239.726 72.313,237.612 C72.313,235.652 73.713,234.07 75.645,234.07 C77.689,234.07 78.893,235.666 78.893,237.696 L78.893,237.962 L73.433,237.962 C73.517,239.236 74.399,240.3 75.855,240.3 C76.639,240.3 77.409,239.992 77.955,239.432 L78.459,240.118 C77.773,240.79 76.863,241.168 75.771,241.168 Z M77.857,237.178 C77.843,236.184 77.171,234.938 75.631,234.938 C74.189,234.938 73.475,236.156 73.419,237.178 L77.857,237.178 Z M84.465,241.98 C81.917,241.98 80.027,240.062 80.027,237.584 C80.027,234.56 82.673,232.068 85.585,232.068 C88.231,232.068 89.995,234.056 89.995,236.506 C89.995,238.69 88.749,239.81 87.573,239.81 C86.789,239.81 86.341,239.264 86.299,238.676 L86.299,238.578 C85.809,239.278 84.969,239.81 84.073,239.81 C82.771,239.81 81.931,238.886 81.931,237.528 C81.931,235.582 83.569,234.014 85.221,234.014 C86.131,234.014 86.747,234.504 87.013,235.106 L87.195,234.238 L88.147,234.238 L87.349,238.032 C87.335,238.116 87.321,238.242 87.321,238.326 C87.321,238.788 87.615,239.054 87.979,239.054 C88.525,239.054 89.505,238.438 89.505,236.506 C89.505,234.21 87.923,232.544 85.543,232.544 C82.827,232.544 80.517,234.938 80.517,237.556 C80.517,239.796 82.197,241.518 84.521,241.518 C85.515,241.518 86.369,241.21 87.125,240.734 L87.377,241.098 C86.509,241.658 85.501,241.98 84.465,241.98 Z M84.367,239.026 C85.319,239.026 86.033,238.354 86.439,237.766 L86.845,235.82 C86.691,235.386 86.229,234.798 85.403,234.798 C84.003,234.798 82.939,236.114 82.939,237.472 C82.939,238.368 83.457,239.026 84.367,239.026 Z M92.599,241 L92.599,236.212 C92.907,235.666 93.789,235.134 94.447,235.134 C94.601,235.134 94.727,235.148 94.853,235.162 L94.853,234.084 C93.929,234.084 93.145,234.616 92.599,235.316 L92.599,234.238 L91.549,234.238 L91.549,241 L92.599,241 Z M99.235,241.168 C97.219,241.168 95.777,239.726 95.777,237.612 C95.777,235.652 97.177,234.07 99.109,234.07 C101.153,234.07 102.357,235.666 102.357,237.696 L102.357,237.962 L96.897,237.962 C96.981,239.236 97.863,240.3 99.319,240.3 C100.103,240.3 100.873,239.992 101.419,239.432 L101.923,240.118 C101.237,240.79 100.327,241.168 99.235,241.168 Z M101.321,237.178 C101.307,236.184 100.635,234.938 99.095,234.938 C97.653,234.938 96.939,236.156 96.883,237.178 L101.321,237.178 Z M105.101,239.166 C105.465,239.754 106.291,240.23 107.131,240.23 C108.489,240.23 109.301,239.124 109.301,237.626 C109.301,236.128 108.489,235.008 107.131,235.008 C106.291,235.008 105.465,235.512 105.101,236.1 L105.101,239.166 Z M105.101,241 L104.051,241 L104.051,231.662 L105.101,231.662 L105.101,235.26 C105.647,234.518 106.473,234.07 107.383,234.07 C109.161,234.07 110.393,235.456 110.393,237.626 C110.393,239.824 109.147,241.168 107.383,241.168 C106.431,241.168 105.605,240.678 105.101,239.992 L105.101,241 Z M115.167,241.168 C113.151,241.168 111.709,239.726 111.709,237.612 C111.709,235.652 113.109,234.07 115.041,234.07 C117.085,234.07 118.289,235.666 118.289,237.696 L118.289,237.962 L112.829,237.962 C112.913,239.236 113.795,240.3 115.251,240.3 C116.035,240.3 116.805,239.992 117.351,239.432 L117.855,240.118 C117.169,240.79 116.259,241.168 115.167,241.168 Z M117.253,237.178 C117.239,236.184 116.567,234.938 115.027,234.938 C113.585,234.938 112.871,236.156 112.815,237.178 L117.253,237.178 Z M121.033,241 L121.033,231.662 L119.983,231.662 L119.983,241 L121.033,241 Z M128.411,241 L127.361,241 L127.361,240.23 C126.815,240.846 126.031,241.168 125.121,241.168 C123.987,241.168 122.769,240.398 122.769,238.928 C122.769,237.402 123.973,236.702 125.121,236.702 C126.045,236.702 126.815,236.996 127.361,237.612 L127.361,236.394 C127.361,235.498 126.633,234.98 125.653,234.98 C124.841,234.98 124.183,235.26 123.581,235.918 L123.091,235.19 C123.819,234.434 124.687,234.07 125.793,234.07 C127.235,234.07 128.411,234.714 128.411,236.352 L128.411,241 Z M125.513,240.412 C126.241,240.412 126.955,240.132 127.361,239.572 L127.361,238.284 C126.955,237.738 126.241,237.458 125.513,237.458 C124.519,237.458 123.833,238.074 123.833,238.928 C123.833,239.796 124.519,240.412 125.513,240.412 Z M131.575,241 L131.575,231.662 L130.525,231.662 L130.525,241 L131.575,241 Z M134.725,241 L134.725,231.662 L133.675,231.662 L133.675,241 L134.725,241 Z M137.357,233.272 C137.749,233.272 138.057,232.964 138.057,232.572 C138.057,232.18 137.749,231.858 137.357,231.858 C136.965,231.858 136.643,232.18 136.643,232.572 C136.643,232.964 136.965,233.272 137.357,233.272 Z M137.875,241 L137.875,234.238 L136.825,234.238 L136.825,241 L137.875,241 Z M145.253,241 L144.203,241 L144.203,240.23 C143.657,240.846 142.873,241.168 141.963,241.168 C140.829,241.168 139.611,240.398 139.611,238.928 C139.611,237.402 140.815,236.702 141.963,236.702 C142.887,236.702 143.657,236.996 144.203,237.612 L144.203,236.394 C144.203,235.498 143.475,234.98 142.495,234.98 C141.683,234.98 141.025,235.26 140.423,235.918 L139.933,235.19 C140.661,234.434 141.529,234.07 142.635,234.07 C144.077,234.07 145.253,234.714 145.253,236.352 L145.253,241 Z M142.355,240.412 C143.083,240.412 143.797,240.132 144.203,239.572 L144.203,238.284 C143.797,237.738 143.083,237.458 142.355,237.458 C141.361,237.458 140.675,238.074 140.675,238.928 C140.675,239.796 141.361,240.412 142.355,240.412 Z M152.981,241 L152.981,236.254 C152.981,234.784 152.239,234.07 150.839,234.07 C149.817,234.07 148.893,234.644 148.417,235.218 L148.417,234.238 L147.367,234.238 L147.367,241 L148.417,241 L148.417,236.058 C148.823,235.512 149.593,235.008 150.419,235.008 C151.329,235.008 151.945,235.372 151.945,236.576 L151.945,241 L152.981,241 Z M158.077,241.168 C159.309,241.168 160.037,240.664 160.555,239.992 L159.855,239.348 C159.407,239.95 158.833,240.23 158.133,240.23 C156.705,240.23 155.795,239.11 155.795,237.612 C155.795,236.114 156.705,235.008 158.133,235.008 C158.833,235.008 159.407,235.26 159.855,235.876 L160.555,235.246 C160.037,234.574 159.309,234.07 158.077,234.07 C156.061,234.07 154.703,235.61 154.703,237.612 C154.703,239.614 156.061,241.168 158.077,241.168 Z M165.105,241.168 C163.089,241.168 161.647,239.726 161.647,237.612 C161.647,235.652 163.047,234.07 164.979,234.07 C167.023,234.07 168.227,235.666 168.227,237.696 L168.227,237.962 L162.767,237.962 C162.851,239.236 163.733,240.3 165.189,240.3 C165.973,240.3 166.743,239.992 167.289,239.432 L167.793,240.118 C167.107,240.79 166.197,241.168 165.105,241.168 Z M167.191,237.178 C167.177,236.184 166.505,234.938 164.965,234.938 C163.523,234.938 162.809,236.156 162.753,237.178 L167.191,237.178 Z M170.481,241.14 C170.901,241.14 171.251,240.79 171.251,240.37 C171.251,239.95 170.901,239.6 170.481,239.6 C170.061,239.6 169.711,239.95 169.711,240.37 C169.711,240.79 170.061,241.14 170.481,241.14 Z M173.687,233.272 C174.079,233.272 174.387,232.964 174.387,232.572 C174.387,232.18 174.079,231.858 173.687,231.858 C173.295,231.858 172.973,232.18 172.973,232.572 C172.973,232.964 173.295,233.272 173.687,233.272 Z M174.205,241 L174.205,234.238 L173.155,234.238 L173.155,241 L174.205,241 Z M179.259,241.168 C177.201,241.168 175.913,239.572 175.913,237.612 C175.913,235.652 177.201,234.07 179.259,234.07 C181.317,234.07 182.605,235.652 182.605,237.612 C182.605,239.572 181.317,241.168 179.259,241.168 Z M179.259,240.23 C180.701,240.23 181.499,238.998 181.499,237.612 C181.499,236.24 180.701,235.008 179.259,235.008 C177.817,235.008 177.019,236.24 177.019,237.612 C177.019,238.998 177.817,240.23 179.259,240.23 Z" id="jamielee@rebelallian" fill="#FFFFFF"></path>
                <path d="M26.702,312.554 L26.618,310.944 L27.962,311.812 L28.284,311.266 L26.856,310.538 L28.284,309.81 L27.962,309.25 L26.618,310.132 L26.702,308.522 L26.058,308.522 L26.142,310.132 L24.784,309.25 L24.476,309.81 L25.904,310.538 L24.476,311.266 L24.784,311.812 L26.142,310.944 L26.058,312.554 L26.702,312.554 Z M31.462,312.554 L31.378,310.944 L32.722,311.812 L33.044,311.266 L31.616,310.538 L33.044,309.81 L32.722,309.25 L31.378,310.132 L31.462,308.522 L30.818,308.522 L30.902,310.132 L29.544,309.25 L29.236,309.81 L30.664,310.538 L29.236,311.266 L29.544,311.812 L30.902,310.944 L30.818,312.554 L31.462,312.554 Z M36.222,312.554 L36.138,310.944 L37.482,311.812 L37.804,311.266 L36.376,310.538 L37.804,309.81 L37.482,309.25 L36.138,310.132 L36.222,308.522 L35.578,308.522 L35.662,310.132 L34.304,309.25 L33.996,309.81 L35.424,310.538 L33.996,311.266 L34.304,311.812 L35.662,310.944 L35.578,312.554 L36.222,312.554 Z M40.982,312.554 L40.898,310.944 L42.242,311.812 L42.564,311.266 L41.136,310.538 L42.564,309.81 L42.242,309.25 L40.898,310.132 L40.982,308.522 L40.338,308.522 L40.422,310.132 L39.064,309.25 L38.756,309.81 L40.184,310.538 L38.756,311.266 L39.064,311.812 L40.422,310.944 L40.338,312.554 L40.982,312.554 Z M45.742,312.554 L45.658,310.944 L47.002,311.812 L47.324,311.266 L45.896,310.538 L47.324,309.81 L47.002,309.25 L45.658,310.132 L45.742,308.522 L45.098,308.522 L45.182,310.132 L43.824,309.25 L43.516,309.81 L44.944,310.538 L43.516,311.266 L43.824,311.812 L45.182,310.944 L45.098,312.554 L45.742,312.554 Z M50.502,312.554 L50.418,310.944 L51.762,311.812 L52.084,311.266 L50.656,310.538 L52.084,309.81 L51.762,309.25 L50.418,310.132 L50.502,308.522 L49.858,308.522 L49.942,310.132 L48.584,309.25 L48.276,309.81 L49.704,310.538 L48.276,311.266 L48.584,311.812 L49.942,310.944 L49.858,312.554 L50.502,312.554 Z M55.262,312.554 L55.178,310.944 L56.522,311.812 L56.844,311.266 L55.416,310.538 L56.844,309.81 L56.522,309.25 L55.178,310.132 L55.262,308.522 L54.618,308.522 L54.702,310.132 L53.344,309.25 L53.036,309.81 L54.464,310.538 L53.036,311.266 L53.344,311.812 L54.702,310.944 L54.618,312.554 L55.262,312.554 Z M60.022,312.554 L59.938,310.944 L61.282,311.812 L61.604,311.266 L60.176,310.538 L61.604,309.81 L61.282,309.25 L59.938,310.132 L60.022,308.522 L59.378,308.522 L59.462,310.132 L58.104,309.25 L57.796,309.81 L59.224,310.538 L57.796,311.266 L58.104,311.812 L59.462,310.944 L59.378,312.554 L60.022,312.554 Z M64.782,312.554 L64.698,310.944 L66.042,311.812 L66.364,311.266 L64.936,310.538 L66.364,309.81 L66.042,309.25 L64.698,310.132 L64.782,308.522 L64.138,308.522 L64.222,310.132 L62.864,309.25 L62.556,309.81 L63.984,310.538 L62.556,311.266 L62.864,311.812 L64.222,310.944 L64.138,312.554 L64.782,312.554 Z M69.542,312.554 L69.458,310.944 L70.802,311.812 L71.124,311.266 L69.696,310.538 L71.124,309.81 L70.802,309.25 L69.458,310.132 L69.542,308.522 L68.898,308.522 L68.982,310.132 L67.624,309.25 L67.316,309.81 L68.744,310.538 L67.316,311.266 L67.624,311.812 L68.982,310.944 L68.898,312.554 L69.542,312.554 Z M74.302,312.554 L74.218,310.944 L75.562,311.812 L75.884,311.266 L74.456,310.538 L75.884,309.81 L75.562,309.25 L74.218,310.132 L74.302,308.522 L73.658,308.522 L73.742,310.132 L72.384,309.25 L72.076,309.81 L73.504,310.538 L72.076,311.266 L72.384,311.812 L73.742,310.944 L73.658,312.554 L74.302,312.554 Z M79.062,312.554 L78.978,310.944 L80.322,311.812 L80.644,311.266 L79.216,310.538 L80.644,309.81 L80.322,309.25 L78.978,310.132 L79.062,308.522 L78.418,308.522 L78.502,310.132 L77.144,309.25 L76.836,309.81 L78.264,310.538 L76.836,311.266 L77.144,311.812 L78.502,310.944 L78.418,312.554 L79.062,312.554 Z M83.822,312.554 L83.738,310.944 L85.082,311.812 L85.404,311.266 L83.976,310.538 L85.404,309.81 L85.082,309.25 L83.738,310.132 L83.822,308.522 L83.178,308.522 L83.262,310.132 L81.904,309.25 L81.596,309.81 L83.024,310.538 L81.596,311.266 L81.904,311.812 L83.262,310.944 L83.178,312.554 L83.822,312.554 Z" id="*************" fill="#FFFFFF"></path>
                <g id="Group" transform="translate(89.000000, 303.000000)" stroke="#FFFFFF" stroke-linecap="square">
                    <path d="M1,12.6176471 L1,0.358479174" id="Line"></path>
                </g>
                <rect id="Rectangle-8" stroke="#E22866" stroke-width="2" x="25" y="357" width="226" height="32" rx="3"></rect>
                <path d="M116.207231,378.144 C118.355231,378.144 119.303231,376.992 119.303231,375.66 C119.303231,372.684 114.647231,373.608 114.647231,372.108 C114.647231,371.52 115.175231,371.112 115.991231,371.112 C116.831231,371.112 117.683231,371.4 118.319231,372.036 L119.111231,370.992 C118.379231,370.272 117.359231,369.864 116.123231,369.864 C114.359231,369.864 113.207231,370.884 113.207231,372.216 C113.207231,375.156 117.863231,374.112 117.863231,375.792 C117.863231,376.332 117.419231,376.896 116.267231,376.896 C115.151231,376.896 114.275231,376.368 113.735231,375.78 L112.943231,376.872 C113.663231,377.616 114.731231,378.144 116.207231,378.144 Z M122.914308,378 L122.914308,369.996 L121.510308,369.996 L121.510308,378 L122.914308,378 Z M129.393385,378.156 C130.773385,378.156 131.901385,377.568 132.681385,376.692 L132.681385,373.704 L128.889385,373.704 L128.889385,374.94 L131.289385,374.94 L131.289385,376.176 C130.929385,376.524 130.209385,376.896 129.393385,376.896 C127.809385,376.896 126.633385,375.672 126.633385,374.004 C126.633385,372.312 127.809385,371.112 129.393385,371.112 C130.281385,371.112 131.037385,371.58 131.469385,372.18 L132.609385,371.52 C131.973385,370.608 130.953385,369.864 129.393385,369.864 C127.065385,369.864 125.193385,371.484 125.193385,374.004 C125.193385,376.512 127.065385,378.156 129.393385,378.156 Z M142.004462,378 L142.004462,369.996 L140.600462,369.996 L140.600462,375.54 L136.508462,369.996 L135.068462,369.996 L135.068462,378 L136.472462,378 L136.472462,372.276 L140.648462,378 L142.004462,378 Z M150.054615,378 L150.054615,369.996 L148.650615,369.996 L148.650615,378 L150.054615,378 Z M159.617692,378 L159.617692,369.996 L158.213692,369.996 L158.213692,375.54 L154.121692,369.996 L152.681692,369.996 L152.681692,378 L154.085692,378 L154.085692,372.276 L158.261692,378 L159.617692,378 Z" id="Sign-in" fill="#FFFFFF"></path>
                <path d="M80.6951661,471 L80.6951661,467.032715 L84.7513185,467.032715 L84.7513185,466.01709 L80.6951661,466.01709 L80.6951661,462.868652 L85.1131349,462.868652 L85.1131349,461.840332 L79.552588,461.840332 L79.552588,471 L80.6951661,471 Z M90.2882325,470.136719 C91.5831544,470.136719 92.3131348,469.197266 92.3131348,467.578613 C92.3131348,465.953613 91.5831544,465.020508 90.2882325,465.020508 C88.9933106,465.020508 88.2633302,465.953613 88.2633302,467.578613 C88.2633302,469.197266 88.9933106,470.136719 90.2882325,470.136719 Z M90.2882325,471.120605 C88.339502,471.120605 87.1334473,469.774902 87.1334473,467.578613 C87.1334473,465.375977 88.339502,464.036621 90.2882325,464.036621 C92.236963,464.036621 93.4430177,465.375977 93.4430177,467.578613 C93.4430177,469.774902 92.236963,471.120605 90.2882325,471.120605 Z M95.780713,471 L96.8725098,471 L96.8725098,466.759766 C96.8725098,465.794922 97.6278809,465.09668 98.6688966,465.09668 C98.8847169,465.09668 99.2782716,465.134766 99.3671387,465.160156 L99.3671387,464.068359 C99.2274903,464.049316 98.9989747,464.036621 98.8212403,464.036621 C97.9135255,464.036621 97.1264161,464.506348 96.9232911,465.172852 L96.8217286,465.172852 L96.8217286,464.157227 L95.780713,464.157227 L95.780713,471 Z M105.964111,467.477051 C105.964111,465.985352 105.196045,465.020508 103.932861,465.020508 C102.66333,465.020508 101.952393,465.985352 101.952393,467.477051 C101.952393,468.96875 102.66333,469.933594 103.932861,469.933594 C105.202393,469.933594 105.964111,468.96875 105.964111,467.477051 Z M103.983643,473.62793 C102.333252,473.62793 101.279541,472.885254 101.114502,471.755371 L102.269775,471.755371 C102.390381,472.313965 102.999756,472.675781 103.983643,472.675781 C105.20874,472.675781 105.938721,472.072754 105.938721,471.063477 L105.938721,469.717773 L105.837158,469.717773 C105.405518,470.473145 104.631104,470.898438 103.69165,470.898438 C101.920654,470.898438 100.82251,469.527344 100.82251,467.477051 C100.82251,465.426758 101.93335,464.036621 103.69165,464.036621 C104.650147,464.036621 105.494385,464.506348 105.88794,465.242676 L105.989502,465.242676 L105.989502,464.157227 L107.030518,464.157227 L107.030518,471.120605 C107.030518,472.650391 105.849854,473.62793 103.983643,473.62793 Z M112.522998,470.136719 C113.81792,470.136719 114.5479,469.197266 114.5479,467.578613 C114.5479,465.953613 113.81792,465.020508 112.522998,465.020508 C111.228076,465.020508 110.498096,465.953613 110.498096,467.578613 C110.498096,469.197266 111.228076,470.136719 112.522998,470.136719 Z M112.522998,471.120605 C110.574268,471.120605 109.368213,469.774902 109.368213,467.578613 C109.368213,465.375977 110.574268,464.036621 112.522998,464.036621 C114.471729,464.036621 115.677783,465.375977 115.677783,467.578613 C115.677783,469.774902 114.471729,471.120605 112.522998,471.120605 Z M118.47251,462.38623 L118.47251,464.157227 L117.368018,464.157227 L117.368018,465.071289 L118.47251,465.071289 L118.47251,469.222656 C118.47251,470.530273 119.037451,471.050781 120.446631,471.050781 C120.662451,471.050781 120.871924,471.025391 121.087744,470.987305 L121.087744,470.066895 C120.884619,470.085938 120.776709,470.092285 120.579932,470.092285 C119.868994,470.092285 119.564307,469.749512 119.564307,468.943359 L119.564307,465.071289 L121.087744,465.071289 L121.087744,464.157227 L119.564307,464.157227 L119.564307,462.38623 L118.47251,462.38623 Z M127.794385,461.840332 L131.253857,461.840332 C132.986768,461.840332 134.186475,463.059082 134.186475,464.804688 C134.186475,466.518555 132.961377,467.730957 131.241162,467.730957 L128.936963,467.730957 L128.936963,471 L127.794385,471 L127.794385,461.840332 Z M128.936963,462.855957 L128.936963,466.715332 L130.955518,466.715332 C132.256787,466.715332 133.012158,466.01709 133.012158,464.804688 C133.012158,463.547852 132.282178,462.855957 130.955518,462.855957 L128.936963,462.855957 Z M138.390381,470.162109 C139.513916,470.162109 140.345459,469.425781 140.345459,468.448242 L140.345459,467.819824 L138.504639,467.94043 C137.463623,468.010254 137.006592,468.37207 137.006592,469.057617 C137.006592,469.755859 137.596924,470.162109 138.390381,470.162109 Z M138.187256,471.120605 C136.860596,471.120605 135.876709,470.333496 135.876709,469.083008 C135.876709,467.85791 136.778076,467.15332 138.371338,467.058105 L140.345459,466.9375 L140.345459,466.31543 C140.345459,465.471191 139.818604,465.007812 138.796631,465.007812 C137.977783,465.007812 137.406494,465.318848 137.25415,465.858398 L136.149658,465.858398 C136.295654,464.760254 137.374756,464.036621 138.834717,464.036621 C140.50415,464.036621 141.437256,464.893555 141.437256,466.31543 L141.437256,471 L140.39624,471 L140.39624,469.990723 L140.294678,469.990723 C139.850342,470.720703 139.101318,471.120605 138.187256,471.120605 Z M143.920947,466.029785 C143.920947,467.02002 144.504932,467.572266 145.787158,467.883301 L146.961475,468.168945 C147.691455,468.34668 148.046924,468.664062 148.046924,469.133789 C148.046924,469.762207 147.386768,470.200195 146.466357,470.200195 C145.590381,470.200195 145.044482,469.832031 144.8604,469.254395 L143.736865,469.254395 C143.857471,470.390625 144.904834,471.120605 146.428271,471.120605 C147.983447,471.120605 149.170459,470.276367 149.170459,469.05127 C149.170459,468.067383 148.548389,467.508789 147.259814,467.197754 L146.206104,466.943848 C145.399951,466.74707 145.019092,466.455078 145.019092,465.985352 C145.019092,465.375977 145.653857,464.963379 146.466357,464.963379 C147.291553,464.963379 147.824756,465.325195 147.970752,465.871094 L149.049854,465.871094 C148.903857,464.747559 147.907275,464.036621 146.472705,464.036621 C145.019092,464.036621 143.920947,464.893555 143.920947,466.029785 Z M151.22251,466.029785 C151.22251,467.02002 151.806494,467.572266 153.088721,467.883301 L154.263037,468.168945 C154.993018,468.34668 155.348486,468.664062 155.348486,469.133789 C155.348486,469.762207 154.68833,470.200195 153.76792,470.200195 C152.891943,470.200195 152.346045,469.832031 152.161963,469.254395 L151.038428,469.254395 C151.159033,470.390625 152.206396,471.120605 153.729834,471.120605 C155.28501,471.120605 156.472021,470.276367 156.472021,469.05127 C156.472021,468.067383 155.849951,467.508789 154.561377,467.197754 L153.507666,466.943848 C152.701514,466.74707 152.320654,466.455078 152.320654,465.985352 C152.320654,465.375977 152.95542,464.963379 153.76792,464.963379 C154.593115,464.963379 155.126318,465.325195 155.272314,465.871094 L156.351416,465.871094 C156.20542,464.747559 155.208838,464.036621 153.774268,464.036621 C152.320654,464.036621 151.22251,464.893555 151.22251,466.029785 Z M167.226709,464.157227 L166.128564,464.157227 L164.782861,469.628906 L164.681299,469.628906 L163.151514,464.157227 L162.10415,464.157227 L160.574365,469.628906 L160.472803,469.628906 L159.1271,464.157227 L158.022607,464.157227 L159.9396,471 L161.044092,471 L162.567529,465.706055 L162.669092,465.706055 L164.198877,471 L165.309717,471 L167.226709,464.157227 Z M171.868603,470.136719 C173.163525,470.136719 173.893506,469.197266 173.893506,467.578613 C173.893506,465.953613 173.163525,465.020508 171.868603,465.020508 C170.573682,465.020508 169.843701,465.953613 169.843701,467.578613 C169.843701,469.197266 170.573682,470.136719 171.868603,470.136719 Z M171.868603,471.120605 C169.919873,471.120605 168.713818,469.774902 168.713818,467.578613 C168.713818,465.375977 169.919873,464.036621 171.868603,464.036621 C173.817334,464.036621 175.023389,465.375977 175.023389,467.578613 C175.023389,469.774902 173.817334,471.120605 171.868603,471.120605 Z M177.361084,471 L178.452881,471 L178.452881,466.759766 C178.452881,465.794922 179.208252,465.09668 180.249268,465.09668 C180.465088,465.09668 180.858643,465.134766 180.94751,465.160156 L180.94751,464.068359 C180.807861,464.049316 180.579346,464.036621 180.401611,464.036621 C179.493896,464.036621 178.706787,464.506348 178.503662,465.172852 L178.4021,465.172852 L178.4021,464.157227 L177.361084,464.157227 L177.361084,471 Z M185.278369,471.120605 C183.526416,471.120605 182.402881,469.730469 182.402881,467.578613 C182.402881,465.433105 183.539111,464.036621 185.278369,464.036621 C186.230518,464.036621 187.03667,464.487305 187.423877,465.236328 L187.519092,465.236328 L187.519092,461.44043 L188.610889,461.44043 L188.610889,471 L187.569873,471 L187.569873,469.908203 L187.46831,469.908203 C187.03667,470.669922 186.22417,471.120605 185.278369,471.120605 Z M185.532275,465.020508 C184.288135,465.020508 183.532764,465.985352 183.532764,467.578613 C183.532764,469.178223 184.281787,470.136719 185.532275,470.136719 C186.776416,470.136719 187.544482,469.15918 187.544482,467.578613 C187.544482,466.010742 186.770068,465.020508 185.532275,465.020508 Z M190.834326,464.233398 L191.919775,464.233398 C191.9896,463.325684 192.598975,462.760742 193.557471,462.760742 C194.503271,462.760742 195.112646,463.338379 195.112646,464.125488 C195.112646,464.804688 194.827002,465.20459 194.090674,465.655273 C193.221045,466.175781 192.814795,466.74707 192.821142,467.584961 L192.821142,468.168945 L193.931982,468.168945 L193.931982,467.756348 C193.931982,467.089844 194.160498,466.734375 194.96665,466.258301 C195.77915,465.769531 196.29331,465.064941 196.29331,464.068359 C196.29331,462.760742 195.201514,461.770508 193.601904,461.770508 C191.818213,461.770508 190.90415,462.862305 190.834326,464.233398 Z M193.462256,471.114258 C193.976416,471.114258 194.338232,470.746094 194.338232,470.231934 C194.338232,469.711426 193.976416,469.343262 193.462256,469.343262 C192.948096,469.343262 192.579932,469.711426 192.579932,470.231934 C192.579932,470.746094 192.948096,471.114258 193.462256,471.114258 Z" id="Forgot-Password?" fill="#FFFFFF" opacity="0.582206157"></path>
                <g id="Rectangle-8-Copy">
                    <use fill="black" fill-opacity="1" filter="url(#filter-2)" xlink:href="#path-1"></use>
                    <use fill="#4065B4" fill-rule="evenodd" xlink:href="#path-1"></use>
                    <rect stroke="#4065B4" stroke-width="2" x="25" y="409" width="226" height="32" rx="3"></rect>
                </g>
                <path d="M83.07,424.312 L84.894,424.312 C84.8379997,423.815998 84.7020011,423.376002 84.486,422.992 C84.2699989,422.607998 83.9960017,422.286001 83.664,422.026 C83.3319984,421.765999 82.9560021,421.568001 82.536,421.432 C82.1159979,421.295999 81.6700024,421.228 81.198,421.228 C80.5419967,421.228 79.9520026,421.343999 79.428,421.576 C78.9039974,421.808001 78.4620018,422.127998 78.102,422.536 C77.7419982,422.944002 77.466001,423.421997 77.274,423.97 C77.0819991,424.518003 76.986,425.111997 76.986,425.752 C76.986,426.376003 77.0819991,426.957997 77.274,427.498 C77.466001,428.038003 77.7419982,428.507998 78.102,428.908 C78.4620018,429.308002 78.9039974,429.621999 79.428,429.85 C79.9520026,430.078001 80.5419967,430.192 81.198,430.192 C81.7260027,430.192 82.2099978,430.112001 82.65,429.952 C83.0900022,429.791999 83.4739984,429.560002 83.802,429.256 C84.1300017,428.951998 84.393999,428.584002 84.594,428.152 C84.794001,427.719998 84.9179998,427.236003 84.966,426.7 L83.142,426.7 C83.0699997,427.276003 82.8720016,427.739998 82.548,428.092 C82.2239984,428.444002 81.7740029,428.62 81.198,428.62 C80.7739979,428.62 80.4140015,428.538001 80.118,428.374 C79.8219985,428.209999 79.5820009,427.992001 79.398,427.72 C79.2139991,427.447999 79.0800004,427.142002 78.996,426.802 C78.9119996,426.461998 78.87,426.112002 78.87,425.752 C78.87,425.375998 78.9119996,425.012002 78.996,424.66 C79.0800004,424.307998 79.2139991,423.994001 79.398,423.718 C79.5820009,423.441999 79.8219985,423.222001 80.118,423.058 C80.4140015,422.893999 80.7739979,422.812 81.198,422.812 C81.4300012,422.812 81.651999,422.85 81.864,422.926 C82.0760011,423.002 82.2659992,423.107999 82.434,423.244 C82.6020009,423.380001 82.7419995,423.537999 82.854,423.718 C82.9660006,423.898001 83.0379999,424.095999 83.07,424.312 Z M87.802,426.904 C87.802,427.152001 87.8259998,427.393999 87.874,427.63 C87.9220003,427.866001 88.0039994,428.077999 88.12,428.266 C88.2360006,428.454001 88.3899991,428.603999 88.582,428.716 C88.774001,428.828001 89.0139986,428.884 89.302,428.884 C89.5900015,428.884 89.831999,428.828001 90.028,428.716 C90.224001,428.603999 90.3799994,428.454001 90.496,428.266 C90.6120006,428.077999 90.6939998,427.866001 90.742,427.63 C90.7900003,427.393999 90.814,427.152001 90.814,426.904 C90.814,426.655999 90.7900003,426.412001 90.742,426.172 C90.6939998,425.931999 90.6120006,425.720001 90.496,425.536 C90.3799994,425.351999 90.224001,425.202001 90.028,425.086 C89.831999,424.969999 89.5900015,424.912 89.302,424.912 C89.0139986,424.912 88.774001,424.969999 88.582,425.086 C88.3899991,425.202001 88.2360006,425.351999 88.12,425.536 C88.0039994,425.720001 87.9220003,425.931999 87.874,426.172 C87.8259998,426.412001 87.802,426.655999 87.802,426.904 Z M86.098,426.904 C86.098,426.407998 86.1739993,425.958002 86.326,425.554 C86.4780008,425.149998 86.6939986,424.806001 86.974,424.522 C87.2540014,424.237999 87.5899981,424.018001 87.982,423.862 C88.374002,423.705999 88.8139976,423.628 89.302,423.628 C89.7900025,423.628 90.231998,423.705999 90.628,423.862 C91.024002,424.018001 91.3619986,424.237999 91.642,424.522 C91.9220014,424.806001 92.1379993,425.149998 92.29,425.554 C92.4420008,425.958002 92.518,426.407998 92.518,426.904 C92.518,427.400002 92.4420008,427.847998 92.29,428.248 C92.1379993,428.648002 91.9220014,428.989999 91.642,429.274 C91.3619986,429.558001 91.024002,429.775999 90.628,429.928 C90.231998,430.080001 89.7900025,430.156 89.302,430.156 C88.8139976,430.156 88.374002,430.080001 87.982,429.928 C87.5899981,429.775999 87.2540014,429.558001 86.974,429.274 C86.6939986,428.989999 86.4780008,428.648002 86.326,428.248 C86.1739993,427.847998 86.098,427.400002 86.098,426.904 Z M93.842,423.796 L93.842,430 L95.546,430 L95.546,426.748 C95.546,426.115997 95.649999,425.662001 95.858,425.386 C96.0660011,425.109999 96.4019977,424.972 96.866,424.972 C97.2740021,424.972 97.5579992,425.097999 97.718,425.35 C97.8780008,425.602001 97.958,425.983997 97.958,426.496 L97.958,430 L99.662,430 L99.662,426.184 C99.662,425.799998 99.6280004,425.450002 99.56,425.134 C99.4919997,424.817998 99.3740009,424.550001 99.206,424.33 C99.0379992,424.109999 98.8080015,423.938001 98.516,423.814 C98.2239986,423.689999 97.8500023,423.628 97.394,423.628 C97.0339982,423.628 96.6820017,423.709999 96.338,423.874 C95.9939983,424.038001 95.7140011,424.299998 95.498,424.66 L95.462,424.66 L95.462,423.796 L93.842,423.796 Z M103.338,423.796 L103.338,421.936 L101.634,421.936 L101.634,423.796 L100.602,423.796 L100.602,424.936 L101.634,424.936 L101.634,428.596 C101.634,428.908002 101.685999,429.159999 101.79,429.352 C101.894001,429.544001 102.035999,429.691999 102.216,429.796 C102.396001,429.900001 102.603999,429.97 102.84,430.006 C103.076001,430.042 103.325999,430.06 103.59,430.06 C103.758001,430.06 103.929999,430.056 104.106,430.048 C104.282001,430.04 104.441999,430.024 104.586,430 L104.586,428.68 C104.506,428.696 104.422,428.708 104.334,428.716 C104.246,428.724 104.154,428.728 104.058,428.728 C103.769999,428.728 103.578,428.68 103.482,428.584 C103.386,428.488 103.338,428.296001 103.338,428.008 L103.338,424.936 L104.586,424.936 L104.586,423.796 L103.338,423.796 Z M107.374,422.836 L107.374,421.432 L105.67,421.432 L105.67,422.836 L107.374,422.836 Z M105.67,423.796 L105.67,430 L107.374,430 L107.374,423.796 L105.67,423.796 Z M108.938,423.796 L108.938,430 L110.642,430 L110.642,426.748 C110.642,426.115997 110.745999,425.662001 110.954,425.386 C111.162001,425.109999 111.497998,424.972 111.962,424.972 C112.370002,424.972 112.653999,425.097999 112.814,425.35 C112.974001,425.602001 113.054,425.983997 113.054,426.496 L113.054,430 L114.758,430 L114.758,426.184 C114.758,425.799998 114.724,425.450002 114.656,425.134 C114.588,424.817998 114.470001,424.550001 114.302,424.33 C114.133999,424.109999 113.904001,423.938001 113.612,423.814 C113.319999,423.689999 112.946002,423.628 112.49,423.628 C112.129998,423.628 111.778002,423.709999 111.434,423.874 C111.089998,424.038001 110.810001,424.299998 110.594,424.66 L110.558,424.66 L110.558,423.796 L108.938,423.796 Z M122.094,430 L122.094,423.796 L120.39,423.796 L120.39,427.048 C120.39,427.680003 120.286001,428.133999 120.078,428.41 C119.869999,428.686001 119.534002,428.824 119.07,428.824 C118.661998,428.824 118.378001,428.698001 118.218,428.446 C118.057999,428.193999 117.978,427.812003 117.978,427.3 L117.978,423.796 L116.274,423.796 L116.274,427.612 C116.274,427.996002 116.308,428.345998 116.376,428.662 C116.444,428.978002 116.561999,429.245999 116.73,429.466 C116.898001,429.686001 117.127999,429.855999 117.42,429.976 C117.712001,430.096001 118.085998,430.156 118.542,430.156 C118.902002,430.156 119.253998,430.076001 119.598,429.916 C119.942002,429.755999 120.221999,429.496002 120.438,429.136 L120.474,429.136 L120.474,430 L122.094,430 Z M127.786,426.232 C127.706,425.799998 127.564001,425.472001 127.36,425.248 C127.155999,425.023999 126.846002,424.912 126.43,424.912 C126.157999,424.912 125.932001,424.958 125.752,425.05 C125.571999,425.142 125.428001,425.255999 125.32,425.392 C125.211999,425.528001 125.136,425.671999 125.092,425.824 C125.048,425.976001 125.022,426.111999 125.014,426.232 L127.786,426.232 Z M125.014,427.312 C125.038,427.864003 125.177999,428.263999 125.434,428.512 C125.690001,428.760001 126.057998,428.884 126.538,428.884 C126.882002,428.884 127.177999,428.798001 127.426,428.626 C127.674001,428.453999 127.826,428.272001 127.882,428.08 L129.382,428.08 C129.141999,428.824004 128.774002,429.355998 128.278,429.676 C127.781998,429.996002 127.182004,430.156 126.478,430.156 C125.989998,430.156 125.550002,430.078001 125.158,429.922 C124.765998,429.765999 124.434001,429.544001 124.162,429.256 C123.889999,428.967999 123.680001,428.624002 123.532,428.224 C123.383999,427.823998 123.31,427.384002 123.31,426.904 C123.31,426.439998 123.385999,426.008002 123.538,425.608 C123.690001,425.207998 123.905999,424.862001 124.186,424.57 C124.466001,424.277999 124.799998,424.048001 125.188,423.88 C125.576002,423.711999 126.005998,423.628 126.478,423.628 C127.006003,423.628 127.465998,423.729999 127.858,423.934 C128.250002,424.138001 128.571999,424.411998 128.824,424.756 C129.076001,425.100002 129.257999,425.491998 129.37,425.932 C129.482001,426.372002 129.522,426.831998 129.49,427.312 L125.014,427.312 Z M141.366,430 L143.322,423.796 L141.57,423.796 L140.43,427.996 L140.406,427.996 L139.35,423.796 L137.694,423.796 L136.662,428.008 L136.638,428.008 L135.498,423.796 L133.698,423.796 L135.666,430 L137.43,430 L138.486,425.836 L138.51,425.836 L139.614,430 L141.366,430 Z M146.014,422.836 L146.014,421.432 L144.31,421.432 L144.31,422.836 L146.014,422.836 Z M144.31,423.796 L144.31,430 L146.014,430 L146.014,423.796 L144.31,423.796 Z M149.738,423.796 L149.738,421.936 L148.034,421.936 L148.034,423.796 L147.002,423.796 L147.002,424.936 L148.034,424.936 L148.034,428.596 C148.034,428.908002 148.085999,429.159999 148.19,429.352 C148.294001,429.544001 148.435999,429.691999 148.616,429.796 C148.796001,429.900001 149.003999,429.97 149.24,430.006 C149.476001,430.042 149.725999,430.06 149.99,430.06 C150.158001,430.06 150.329999,430.056 150.506,430.048 C150.682001,430.04 150.841999,430.024 150.986,430 L150.986,428.68 C150.906,428.696 150.822,428.708 150.734,428.716 C150.646,428.724 150.554,428.728 150.458,428.728 C150.169999,428.728 149.978,428.68 149.882,428.584 C149.786,428.488 149.738,428.296001 149.738,428.008 L149.738,424.936 L150.986,424.936 L150.986,423.796 L149.738,423.796 Z M152.022,421.432 L152.022,430 L153.726,430 L153.726,426.748 C153.726,426.115997 153.829999,425.662001 154.038,425.386 C154.246001,425.109999 154.581998,424.972 155.046,424.972 C155.454002,424.972 155.737999,425.097999 155.898,425.35 C156.058001,425.602001 156.138,425.983997 156.138,426.496 L156.138,430 L157.842,430 L157.842,426.184 C157.842,425.799998 157.808,425.450002 157.74,425.134 C157.672,424.817998 157.554001,424.550001 157.386,424.33 C157.217999,424.109999 156.988001,423.938001 156.696,423.814 C156.403999,423.689999 156.030002,423.628 155.574,423.628 C155.253998,423.628 154.926002,423.709999 154.59,423.874 C154.253998,424.038001 153.978001,424.299998 153.762,424.66 L153.726,424.66 L153.726,421.432 L152.022,421.432 Z M163.094,421.432 L163.094,430 L164.978,430 L164.978,426.46 L168.566,426.46 L168.566,424.996 L164.978,424.996 L164.978,423.016 L169.118,423.016 L169.118,421.432 L163.094,421.432 Z M170.178,425.704 C170.202,425.303998 170.301999,424.972001 170.478,424.708 C170.654001,424.443999 170.877999,424.232001 171.15,424.072 C171.422001,423.911999 171.727998,423.798 172.068,423.73 C172.408002,423.662 172.749998,423.628 173.094,423.628 C173.406002,423.628 173.721998,423.65 174.042,423.694 C174.362002,423.738 174.653999,423.823999 174.918,423.952 C175.182001,424.080001 175.397999,424.257999 175.566,424.486 C175.734001,424.714001 175.818,425.015998 175.818,425.392 L175.818,428.62 C175.818,428.900001 175.834,429.167999 175.866,429.424 C175.898,429.680001 175.954,429.871999 176.034,430 L174.306,430 C174.274,429.904 174.248,429.806 174.228,429.706 C174.208,429.605999 174.194,429.504001 174.186,429.4 C173.913999,429.680001 173.594002,429.875999 173.226,429.988 C172.857998,430.100001 172.482002,430.156 172.098,430.156 C171.801999,430.156 171.526001,430.12 171.27,430.048 C171.013999,429.976 170.790001,429.864001 170.598,429.712 C170.405999,429.559999 170.256001,429.368001 170.148,429.136 C170.039999,428.903999 169.986,428.628002 169.986,428.308 C169.986,427.955998 170.047999,427.666001 170.172,427.438 C170.296001,427.209999 170.455999,427.028001 170.652,426.892 C170.848001,426.755999 171.071999,426.654 171.324,426.586 C171.576001,426.518 171.829999,426.464 172.086,426.424 C172.342001,426.384 172.593999,426.352 172.842,426.328 C173.090001,426.304 173.309999,426.268 173.502,426.22 C173.694001,426.172 173.845999,426.102 173.958,426.01 C174.070001,425.918 174.122,425.784001 174.114,425.608 C174.114,425.423999 174.084,425.278001 174.024,425.17 C173.964,425.061999 173.884,424.978 173.784,424.918 C173.683999,424.858 173.568001,424.818 173.436,424.798 C173.303999,424.778 173.162001,424.768 173.01,424.768 C172.673998,424.768 172.410001,424.839999 172.218,424.984 C172.025999,425.128001 171.914,425.367998 171.882,425.704 L170.178,425.704 Z M174.114,426.964 C174.042,427.028 173.952001,427.078 173.844,427.114 C173.735999,427.15 173.620001,427.18 173.496,427.204 C173.371999,427.228 173.242001,427.248 173.106,427.264 C172.969999,427.28 172.834001,427.3 172.698,427.324 C172.569999,427.348 172.444001,427.38 172.32,427.42 C172.195999,427.46 172.088,427.514 171.996,427.582 C171.904,427.65 171.83,427.735999 171.774,427.84 C171.718,427.944001 171.69,428.075999 171.69,428.236 C171.69,428.388001 171.718,428.515999 171.774,428.62 C171.83,428.724001 171.906,428.806 172.002,428.866 C172.098,428.926 172.209999,428.968 172.338,428.992 C172.466001,429.016 172.597999,429.028 172.734,429.028 C173.070002,429.028 173.329999,428.972001 173.514,428.86 C173.698001,428.747999 173.834,428.614001 173.922,428.458 C174.01,428.301999 174.064,428.144001 174.084,427.984 C174.104,427.823999 174.114,427.696 174.114,427.6 L174.114,426.964 Z M181.582,425.98 L183.25,425.98 C183.226,425.579998 183.130001,425.234001 182.962,424.942 C182.793999,424.649999 182.576001,424.406001 182.308,424.21 C182.039999,424.013999 181.736002,423.868 181.396,423.772 C181.055998,423.676 180.702002,423.628 180.334,423.628 C179.829997,423.628 179.382002,423.711999 178.99,423.88 C178.597998,424.048001 178.266001,424.281998 177.994,424.582 C177.721999,424.882002 177.516001,425.237998 177.376,425.65 C177.235999,426.062002 177.166,426.507998 177.166,426.988 C177.166,427.452002 177.241999,427.877998 177.394,428.266 C177.546001,428.654002 177.757999,428.987999 178.03,429.268 C178.302001,429.548001 178.631998,429.765999 179.02,429.922 C179.408002,430.078001 179.833998,430.156 180.298,430.156 C181.122004,430.156 181.797997,429.940002 182.326,429.508 C182.854003,429.075998 183.173999,428.448004 183.286,427.624 L181.642,427.624 C181.586,428.008002 181.448001,428.313999 181.228,428.542 C181.007999,428.770001 180.694002,428.884 180.286,428.884 C180.021999,428.884 179.798001,428.824001 179.614,428.704 C179.429999,428.583999 179.284001,428.430001 179.176,428.242 C179.067999,428.053999 178.99,427.844001 178.942,427.612 C178.894,427.379999 178.87,427.152001 178.87,426.928 C178.87,426.695999 178.894,426.462001 178.942,426.226 C178.99,425.989999 179.071999,425.774001 179.188,425.578 C179.304001,425.381999 179.453999,425.222001 179.638,425.098 C179.822001,424.973999 180.049999,424.912 180.322,424.912 C181.050004,424.912 181.469999,425.267996 181.582,425.98 Z M188.642,426.232 C188.562,425.799998 188.420001,425.472001 188.216,425.248 C188.011999,425.023999 187.702002,424.912 187.286,424.912 C187.013999,424.912 186.788001,424.958 186.608,425.05 C186.427999,425.142 186.284001,425.255999 186.176,425.392 C186.067999,425.528001 185.992,425.671999 185.948,425.824 C185.904,425.976001 185.878,426.111999 185.87,426.232 L188.642,426.232 Z M185.87,427.312 C185.894,427.864003 186.033999,428.263999 186.29,428.512 C186.546001,428.760001 186.913998,428.884 187.394,428.884 C187.738002,428.884 188.033999,428.798001 188.282,428.626 C188.530001,428.453999 188.682,428.272001 188.738,428.08 L190.238,428.08 C189.997999,428.824004 189.630002,429.355998 189.134,429.676 C188.637998,429.996002 188.038004,430.156 187.334,430.156 C186.845998,430.156 186.406002,430.078001 186.014,429.922 C185.621998,429.765999 185.290001,429.544001 185.018,429.256 C184.745999,428.967999 184.536001,428.624002 184.388,428.224 C184.239999,427.823998 184.166,427.384002 184.166,426.904 C184.166,426.439998 184.241999,426.008002 184.394,425.608 C184.546001,425.207998 184.761999,424.862001 185.042,424.57 C185.322001,424.277999 185.655998,424.048001 186.044,423.88 C186.432002,423.711999 186.861998,423.628 187.334,423.628 C187.862003,423.628 188.321998,423.729999 188.714,423.934 C189.106002,424.138001 189.427999,424.411998 189.68,424.756 C189.932001,425.100002 190.113999,425.491998 190.226,425.932 C190.338001,426.372002 190.378,426.831998 190.346,427.312 L185.87,427.312 Z M196.122,426.904 C196.122,426.639999 196.094,426.388001 196.038,426.148 C195.982,425.907999 195.894001,425.696001 195.774,425.512 C195.653999,425.327999 195.504001,425.182001 195.324,425.074 C195.143999,424.965999 194.926001,424.912 194.67,424.912 C194.421999,424.912 194.206001,424.965999 194.022,425.074 C193.837999,425.182001 193.686001,425.327999 193.566,425.512 C193.445999,425.696001 193.358,425.907999 193.302,426.148 C193.246,426.388001 193.218,426.639999 193.218,426.904 C193.218,427.160001 193.246,427.407999 193.302,427.648 C193.358,427.888001 193.445999,428.099999 193.566,428.284 C193.686001,428.468001 193.837999,428.613999 194.022,428.722 C194.206001,428.830001 194.421999,428.884 194.67,428.884 C194.926001,428.884 195.143999,428.830001 195.324,428.722 C195.504001,428.613999 195.653999,428.468001 195.774,428.284 C195.894001,428.099999 195.982,427.888001 196.038,427.648 C196.094,427.407999 196.122,427.160001 196.122,426.904 Z M191.574,421.432 L193.278,421.432 L193.278,424.552 L193.302,424.552 C193.510001,424.231998 193.791998,423.998001 194.148,423.85 C194.504002,423.701999 194.873998,423.628 195.258,423.628 C195.570002,423.628 195.877998,423.691999 196.182,423.82 C196.486002,423.948001 196.759999,424.143999 197.004,424.408 C197.248001,424.672001 197.445999,425.009998 197.598,425.422 C197.750001,425.834002 197.826,426.323997 197.826,426.892 C197.826,427.460003 197.750001,427.949998 197.598,428.362 C197.445999,428.774002 197.248001,429.111999 197.004,429.376 C196.759999,429.640001 196.486002,429.835999 196.182,429.964 C195.877998,430.092001 195.570002,430.156 195.258,430.156 C194.801998,430.156 194.394002,430.084001 194.034,429.94 C193.673998,429.795999 193.402001,429.552002 193.218,429.208 L193.194,429.208 L193.194,430 L191.574,430 L191.574,421.432 Z M200.638,426.904 C200.638,427.152001 200.662,427.393999 200.71,427.63 C200.758,427.866001 200.839999,428.077999 200.956,428.266 C201.072001,428.454001 201.225999,428.603999 201.418,428.716 C201.610001,428.828001 201.849999,428.884 202.138,428.884 C202.426001,428.884 202.667999,428.828001 202.864,428.716 C203.060001,428.603999 203.215999,428.454001 203.332,428.266 C203.448001,428.077999 203.53,427.866001 203.578,427.63 C203.626,427.393999 203.65,427.152001 203.65,426.904 C203.65,426.655999 203.626,426.412001 203.578,426.172 C203.53,425.931999 203.448001,425.720001 203.332,425.536 C203.215999,425.351999 203.060001,425.202001 202.864,425.086 C202.667999,424.969999 202.426001,424.912 202.138,424.912 C201.849999,424.912 201.610001,424.969999 201.418,425.086 C201.225999,425.202001 201.072001,425.351999 200.956,425.536 C200.839999,425.720001 200.758,425.931999 200.71,426.172 C200.662,426.412001 200.638,426.655999 200.638,426.904 Z M198.934,426.904 C198.934,426.407998 199.009999,425.958002 199.162,425.554 C199.314001,425.149998 199.529999,424.806001 199.81,424.522 C200.090001,424.237999 200.425998,424.018001 200.818,423.862 C201.210002,423.705999 201.649998,423.628 202.138,423.628 C202.626002,423.628 203.067998,423.705999 203.464,423.862 C203.860002,424.018001 204.197999,424.237999 204.478,424.522 C204.758001,424.806001 204.973999,425.149998 205.126,425.554 C205.278001,425.958002 205.354,426.407998 205.354,426.904 C205.354,427.400002 205.278001,427.847998 205.126,428.248 C204.973999,428.648002 204.758001,428.989999 204.478,429.274 C204.197999,429.558001 203.860002,429.775999 203.464,429.928 C203.067998,430.080001 202.626002,430.156 202.138,430.156 C201.649998,430.156 201.210002,430.080001 200.818,429.928 C200.425998,429.775999 200.090001,429.558001 199.81,429.274 C199.529999,428.989999 199.314001,428.648002 199.162,428.248 C199.009999,427.847998 198.934,427.400002 198.934,426.904 Z M208.19,426.904 C208.19,427.152001 208.214,427.393999 208.262,427.63 C208.31,427.866001 208.391999,428.077999 208.508,428.266 C208.624001,428.454001 208.777999,428.603999 208.97,428.716 C209.162001,428.828001 209.401999,428.884 209.69,428.884 C209.978001,428.884 210.219999,428.828001 210.416,428.716 C210.612001,428.603999 210.767999,428.454001 210.884,428.266 C211.000001,428.077999 211.082,427.866001 211.13,427.63 C211.178,427.393999 211.202,427.152001 211.202,426.904 C211.202,426.655999 211.178,426.412001 211.13,426.172 C211.082,425.931999 211.000001,425.720001 210.884,425.536 C210.767999,425.351999 210.612001,425.202001 210.416,425.086 C210.219999,424.969999 209.978001,424.912 209.69,424.912 C209.401999,424.912 209.162001,424.969999 208.97,425.086 C208.777999,425.202001 208.624001,425.351999 208.508,425.536 C208.391999,425.720001 208.31,425.931999 208.262,426.172 C208.214,426.412001 208.19,426.655999 208.19,426.904 Z M206.486,426.904 C206.486,426.407998 206.561999,425.958002 206.714,425.554 C206.866001,425.149998 207.081999,424.806001 207.362,424.522 C207.642001,424.237999 207.977998,424.018001 208.37,423.862 C208.762002,423.705999 209.201998,423.628 209.69,423.628 C210.178002,423.628 210.619998,423.705999 211.016,423.862 C211.412002,424.018001 211.749999,424.237999 212.03,424.522 C212.310001,424.806001 212.525999,425.149998 212.678,425.554 C212.830001,425.958002 212.906,426.407998 212.906,426.904 C212.906,427.400002 212.830001,427.847998 212.678,428.248 C212.525999,428.648002 212.310001,428.989999 212.03,429.274 C211.749999,429.558001 211.412002,429.775999 211.016,429.928 C210.619998,430.080001 210.178002,430.156 209.69,430.156 C209.201998,430.156 208.762002,430.080001 208.37,429.928 C207.977998,429.775999 207.642001,429.558001 207.362,429.274 C207.081999,428.989999 206.866001,428.648002 206.714,428.248 C206.561999,427.847998 206.486,427.400002 206.486,426.904 Z M214.386,421.432 L214.386,430 L216.09,430 L216.09,427.864 L216.75,427.228 L218.454,430 L220.518,430 L217.914,426.076 L220.254,423.796 L218.238,423.796 L216.09,426.028 L216.09,421.432 L214.386,421.432 Z" id="Continue-with-Facebo" fill="#FFFFFF"></path>
                <g id="F_icon" transform="translate(32.000000, 416.000000)" fill-rule="nonzero">
                    <path d="M17.006608,18 C17.5551632,18 18,17.5551667 18,17.006476 L18,0.993454111 C18,0.444693639 17.5552331,0 17.006608,0 L0.993461821,0 C0.44469709,0 0,0.444693639 0,0.993454111 L0,17.006476 C0,17.5550968 0.444627246,18 0.993461821,18 L17.006608,18 Z" id="Blue_1_" fill="#FFFFFF"></path>
                    <path d="M12.1927268,18 L12.1927268,11.1577733 L14.5513545,11.1577733 L14.9045255,8.49123609 L12.1927268,8.49123609 L12.1927268,6.78882059 C12.1927268,6.01679654 12.4128954,5.49068763 13.5498583,5.49068763 L15,5.49007061 L15,3.10509838 C14.7492035,3.07260221 13.8883843,3 12.8868881,3 C10.7960958,3 9.3646829,4.24267008 9.3646829,6.52473777 L9.3646829,8.49123609 L7,8.49123609 L7,11.1577733 L9.3646829,11.1577733 L9.3646829,18 L12.1927268,18 Z" id="f" fill="#4065B4"></path>
                </g>
                <g id="m-logo" transform="translate(84.000000, 77.000000)" fill-rule="nonzero" fill="#E22766">
                    <polygon id="Shape" points="78 14 78 14.17 53 79 53.01 79.03 53 79.02 52.99 79.02 53 79 28.83 14 24.33 14 13.33 87 22.33 87 28.65 36.51 48.17 87 48.18 86.98 57.15 86.98 57.15 86.95 78.19 35.59 84.5 87 93.5 87 82.5 14"></polygon>
                    <polygon id="Shape" points="92.5 0 92.25 0 84.5 0 80.89 0 71.92 0 71.89 0 53.42 45.45 36.08 0 35.5 0 28.08 0 22 0 15.17 0 14 0 0 87 8 87 20.71 8 31.2 8 49.54 55.01 49.54 55.01 53 63.88 77.4 8 85.79 8 98.5 87 106.5 87"></polygon>
                </g>
            </g>
        </g>
    </g>
</svg>
