<?xml version="1.0" encoding="UTF-8" standalone="no"?>
<svg width="34px" height="34px" viewBox="0 0 34 34" version="1.1" xmlns="http://www.w3.org/2000/svg" xmlns:xlink="http://www.w3.org/1999/xlink">
    <g stroke="none" stroke-width="1" fill="none" fill-rule="evenodd">
        <g transform="translate(1.000000, 1.049127)" stroke="#B786FF" stroke-width="0.5" fill="#B786FF">
            <path d="M16.1305961,0.770578947 C7.72374558,0.770578947 0.883960209,7.61605263 0.883960209,16.0298947 C0.883960209,24.4454737 7.72374558,31.2909474 16.1305961,31.2909474 C24.5380251,31.2909474 31.378389,24.4454737 31.378389,16.0298947 C31.378389,7.61605263 24.5380251,0.770578947 16.1305961,0.770578947 M16.1305961,32.0609474 C7.29857286,32.0609474 0.114021581,24.8698421 0.114021581,16.0298947 C0.114021581,7.19168421 7.29857286,0 16.1305961,0 C24.9631979,0 32.1477491,7.19168421 32.1477491,16.0298947 C32.1477491,24.8698421 24.9631979,32.0609474 16.1305961,32.0609474" id="Fill-16"></path>
            <path d="M16.1305961,4.30927895 C9.67317697,4.30927895 4.41954615,9.56727895 4.41954615,16.0300684 C4.41954615,22.4934368 9.67317697,27.7520158 16.1305961,27.7520158 C22.5885938,27.7520158 27.8422246,22.4934368 27.8422246,16.0300684 C27.8422246,9.56727895 22.5885938,4.30927895 16.1305961,4.30927895 M16.1305961,28.5220158 C9.24916118,28.5220158 3.64960753,22.9189632 3.64960753,16.0300684 C3.64960753,9.14291053 9.24916118,3.5387 16.1305961,3.5387 C23.013188,3.5387 28.6121632,9.14291053 28.6121632,16.0300684 C28.6121632,22.9189632 23.013188,28.5220158 16.1305961,28.5220158" id="Fill-17"></path>
            <path d="M19.1997647,21.2327211 L21.7224562,21.2327211 L17.5360957,9.71051053 L14.7259064,9.71051053 L10.5389675,21.2327211 L13.0622374,21.2327211 L14.1786773,17.8800368 L18.0827463,17.8800368 L19.1997647,21.2327211 Z M22.8215421,22.0033 L18.6450155,22.0033 L17.5279971,18.6506158 L14.7334265,18.6506158 L13.6169866,22.0033 L9.43988152,22.0033 L14.1861974,8.94051053 L18.0758047,8.94051053 L22.8215421,22.0033 Z" id="Fill-18"></path>
        </g>
    </g>
</svg>
