<?xml version="1.0" encoding="UTF-8" standalone="no"?>
<svg width="35px" height="34px" viewBox="0 0 35 34" version="1.1" xmlns="http://www.w3.org/2000/svg" xmlns:xlink="http://www.w3.org/1999/xlink">
    <g stroke="none" stroke-width="1" fill="none" fill-rule="evenodd">
        <path d="M5.99381984,27.2373747 C5.99381984,28.1803212 6.75999391,28.9471325 7.70215692,28.9471325 C8.64431993,28.9471325 9.41049399,28.1803212 9.41049399,27.2373747 C9.41049399,26.2944281 8.64431993,25.5276168 7.70215692,25.5276168 C6.75999391,25.5276168 5.99381984,26.2944281 5.99381984,27.2373747 Z M5.20512867,27.2373747 C5.20512867,25.8597238 6.32565084,24.7382698 7.70215692,24.7382698 C9.078663,24.7382698 10.1991852,25.8597238 10.1991852,27.2373747 C10.1991852,28.6150255 9.078663,29.7364796 7.70215692,29.7364796 C6.32565084,29.7364796 5.20512867,28.6150255 5.20512867,27.2373747 Z M1.78904708,24.9357548 C1.78904708,29.3593009 5.38467295,32.9579171 9.8045433,32.9579171 C14.2250062,32.9579171 17.8206321,29.3593009 17.8206321,24.9357548 C17.8206321,23.6263045 17.5136884,22.376159 16.9080968,21.218529 L16.7735868,20.9617391 L16.9786109,20.7565445 L32.8845742,4.83735303 L30.0503819,2.00080373 L27.54091,4.5117696 L24.5230256,1.49137538 L21.9264481,4.08951932 L24.9449251,7.11050659 L22.2843515,9.77329277 L19.2664671,6.75171246 L16.6698896,9.35044944 L19.6883665,12.3714367 L13.9820585,18.0824904 L13.7213342,17.9360075 C12.5291128,17.2664561 11.1745313,16.9129994 9.8045433,16.9129994 C5.38467295,16.9129994 1.78904708,20.5122087 1.78904708,24.9357548 Z M0.999763355,24.9357548 C0.999763355,20.0769113 4.94973732,16.1242454 9.8045433,16.1242454 C11.209492,16.1242454 12.5996269,16.4622828 13.842808,17.1057401 L18.5731774,12.3714367 L15.5547004,9.35044944 L19.2664671,5.63618889 L22.2843515,8.65717616 L23.8297359,7.11050659 L20.8112589,4.08951932 L24.5230256,0.375258759 L27.54091,3.39624603 L30.0503819,0.884687119 L33.9997634,4.83735303 L17.7376743,21.1135595 C18.3083051,22.3002488 18.6093232,23.6150366 18.6093232,24.9357548 C18.6093232,29.7940052 14.6593493,33.7472642 9.8045433,33.7472642 C4.94973732,33.7472642 0.999763355,29.7940052 0.999763355,24.9357548 Z" id="Fill-19" stroke="#EE896B" stroke-width="0.5" fill="#EE896B"></path>
    </g>
</svg>
