<?xml version="1.0" encoding="UTF-8" standalone="no"?>
<svg width="34px" height="30px" viewBox="0 0 34 30" version="1.1" xmlns="http://www.w3.org/2000/svg" xmlns:xlink="http://www.w3.org/1999/xlink">
    <g stroke="none" stroke-width="1" fill="none" fill-rule="evenodd">
        <g transform="translate(1.000000, 0.049127)" stroke="#FE91C4" stroke-width="0.5" fill="#FE91C4">
            <path d="M22.983704,14.7946754 L31.1656138,16.6146378 L31.1656138,11.1514009 L28.2789637,12.1138596 L28.1356073,12.0329103 C26.2591454,10.9682882 23.0316753,9.62118102 20.7457832,9.22145921 C20.5366056,9.18461335 20.3229656,9.15055883 20.1087678,9.11873741 L20.1087678,11.7113464 C21.4508509,12.0161622 22.8358852,12.632493 24.2309599,13.5463821 L24.7714747,13.8997675 L22.983704,14.7946754 Z M31.9074968,17.5408088 L20.7814828,15.0654367 L23.2704166,13.820493 C22.0421261,13.0869254 20.832801,12.6023464 19.6669849,12.3773633 L19.366327,12.3187449 L19.366327,8.27016598 L19.7846821,8.32431823 C20.151719,8.37177124 20.5176402,8.42759831 20.8735209,8.48956635 C23.2090579,8.89822049 26.3668021,10.1995494 28.3570566,11.3054836 L31.9074968,10.1208333 L31.9074968,17.5408088 Z" id="Fill-21"></path>
            <path d="M14.0026802,12.2682773 C9.2713631,12.9845385 5.88101351,15.6430235 5.88101351,18.6878318 C5.88101351,21.73264 9.2719209,24.391125 14.0026802,25.1073863 L14.0026802,12.2682773 Z M14.0026802,8.98620395 C6.44774519,9.74935996 0.79995158,13.8760968 0.79995158,18.6878318 C0.79995158,23.8233637 7.19074382,28.1175818 15.3670755,28.48939 L19.3659923,26.5092039 L19.3659923,1.52268327 L14.7445632,3.37223402 L14.7445632,25.9548412 L14.3273237,25.9023637 C9.00305804,25.2357885 5.13857269,22.2015874 5.13857269,18.6878318 C5.13857269,15.246093 8.84742995,12.2643694 14.0026802,11.5174032 L14.0026802,8.98620395 Z M15.5254927,29.2391476 L15.4312233,29.2357979 C6.8103196,28.8757133 0.0575107601,24.242625 0.0575107601,18.6878318 C0.0575107601,13.4752585 6.0288323,9.02249154 14.0026802,8.23979605 L14.0026802,2.86979041 L20.1084332,0.42512312 L20.1084332,26.9703355 L15.5254927,29.2391476 Z" id="Fill-22"></path>
        </g>
    </g>
</svg>
